<?xml version="1.0" standalone="no"?>
<!DOCTYPE svg PUBLIC "-//W3C//DTD SVG 20010904//EN"
 "http://www.w3.org/TR/2001/REC-SVG-20010904/DTD/svg10.dtd">
<svg version="1.0" xmlns="http://www.w3.org/2000/svg"
 width="640.000000pt" height="450.000000pt" viewBox="0 0 640.000000 450.000000"
 preserveAspectRatio="xMidYMid meet">
<metadata>
Created by potrace 1.15, written by Peter Selinger 2001-2017
</metadata>
<g transform="translate(0.000000,450.000000) scale(0.100000,-0.100000)"
fill="#000000" stroke="none">
<path d="M2776 4465 c-24 -25 -46 -112 -46 -184 0 -36 -3 -89 -6 -118 l-7 -52
-56 -11 c-74 -15 -111 -29 -138 -53 -22 -20 -22 -20 -53 6 -38 32 -84 42 -163
33 -76 -8 -207 -43 -226 -61 -9 -9 -17 -54 -23 -137 -5 -68 -12 -145 -16 -173
-7 -49 -8 -50 -74 -85 -115 -61 -148 -105 -148 -200 0 -32 7 -81 17 -109 16
-50 17 -51 57 -51 23 0 76 11 120 25 43 13 98 27 122 31 37 5 44 4 44 -10 0
-18 -102 -125 -160 -168 l-35 -26 19 -55 c10 -31 28 -73 40 -94 25 -43 29 -44
141 -19 82 18 195 21 195 5 0 -6 -19 -32 -41 -59 -33 -39 -53 -53 -93 -64
-107 -32 -117 -58 -60 -167 31 -59 40 -69 63 -69 30 0 94 30 132 61 23 18 34
20 81 14 82 -10 87 -16 54 -67 -15 -24 -39 -53 -53 -64 -24 -20 -28 -21 -60
-7 -19 8 -47 13 -62 11 -22 -3 -29 -12 -48 -68 -13 -36 -22 -83 -20 -105 2
-36 5 -40 38 -50 20 -5 46 -21 57 -35 19 -23 22 -24 56 -12 33 12 39 11 66 -8
16 -11 39 -33 50 -48 l22 -27 -39 -17 c-67 -30 -118 -33 -175 -9 -28 11 -68
21 -89 21 -37 0 -39 -1 -54 -52 -9 -29 -19 -74 -22 -100 l-6 -46 54 -16 c29
-9 60 -16 69 -16 19 0 125 -62 157 -92 12 -12 20 -25 17 -29 -3 -5 -35 -18
-72 -29 l-67 -21 -56 21 c-31 12 -72 20 -90 18 -33 -3 -35 -5 -51 -68 -26
-101 -24 -126 13 -146 17 -8 56 -18 86 -21 46 -5 61 -12 104 -50 27 -25 49
-48 49 -52 0 -29 -186 -41 -230 -16 -14 8 -39 14 -57 15 -28 0 -33 -5 -49 -45
-9 -25 -17 -71 -18 -102 l-1 -57 45 -9 c49 -10 134 -60 174 -104 23 -25 24
-29 11 -40 -23 -16 -176 -37 -216 -29 -81 17 -92 14 -104 -25 -5 -20 -16 -43
-23 -52 -7 -8 -16 -31 -19 -51 -5 -34 -3 -37 30 -51 20 -8 69 -16 110 -17 l75
-3 22 -79 c25 -84 60 -136 91 -136 11 0 52 18 92 40 87 47 117 46 117 -5 0
-44 23 -65 71 -65 25 0 46 -7 58 -19 10 -10 43 -24 72 -30 30 -7 70 -19 91
-28 51 -22 94 -5 165 65 52 51 62 57 94 54 32 -3 42 -10 73 -57 35 -54 72 -77
86 -56 5 9 23 9 66 2 142 -22 242 32 284 153 11 32 35 77 54 100 60 73 125
235 98 244 -21 7 -13 20 20 31 17 6 32 10 33 9 1 -2 8 -19 15 -38 22 -58 79
-137 132 -185 47 -42 50 -48 39 -71 -17 -39 -14 -91 9 -114 15 -15 33 -20 70
-20 46 0 50 -2 56 -27 3 -16 8 -36 10 -45 3 -10 -5 -23 -20 -33 -28 -19 -60
-80 -52 -101 8 -22 62 -17 85 8 11 12 26 37 32 57 7 20 25 51 40 69 21 24 29
43 29 71 0 45 -14 60 -64 68 -40 6 -44 18 -25 72 6 17 24 38 39 46 29 15 58
13 256 -14 34 -5 73 -7 87 -4 41 8 130 95 166 162 31 59 59 78 76 51 11 -18
41 -11 54 13 16 30 6 55 -54 136 l-47 63 -59 -6 c-32 -4 -82 -13 -111 -20
-101 -25 -108 -27 -108 -16 0 6 37 49 82 96 l82 85 -18 53 c-24 70 -72 146
-92 146 -9 0 -61 -7 -116 -16 -55 -9 -102 -14 -104 -11 -3 3 31 43 75 89 67
71 79 89 74 109 -9 35 -78 152 -96 163 -10 7 -44 4 -104 -7 -48 -10 -106 -17
-127 -17 l-40 0 29 30 c32 33 48 36 107 18 32 -10 41 -9 54 4 19 19 64 140 64
173 0 24 -6 28 -66 40 -24 5 -39 18 -63 57 l-32 51 -44 -6 c-38 -6 -46 -3 -60
16 -14 20 -14 23 1 34 9 6 38 16 64 22 44 10 53 8 107 -19 32 -16 77 -32 99
-35 40 -6 42 -6 56 32 9 21 21 65 28 97 12 57 11 60 -11 77 -21 16 -80 35
-160 53 -14 3 -47 24 -73 47 l-48 42 34 18 c52 28 108 33 168 15 78 -23 118
-21 130 7 14 31 28 133 23 161 -6 32 -44 48 -128 55 l-70 6 2 65 c1 61 3 65
25 63 13 -1 55 -13 95 -27 94 -34 116 -27 137 45 9 29 16 74 16 101 0 59 -10
64 -132 74 -73 6 -85 11 -116 39 -45 41 -39 59 44 142 l63 63 -1 62 c-1 35 2
110 6 168 7 95 6 108 -12 136 -30 46 -122 89 -192 88 -61 0 -156 -42 -197 -85
-39 -43 -94 -205 -100 -294 -3 -44 -10 -86 -16 -93 -21 -26 -73 -45 -147 -54
-136 -16 -125 -18 -127 25 0 21 -4 49 -7 63 -9 36 -69 98 -114 118 -29 13 -49
35 -81 87 -27 44 -49 69 -61 69 -9 0 -37 -11 -61 -24 -52 -29 -107 -41 -152
-32 l-33 6 10 58 c12 77 2 121 -39 169 -19 22 -31 43 -28 47 11 11 79 7 148
-9 102 -24 153 -3 210 88 25 39 23 121 -3 172 -29 58 -121 141 -168 153 -21 6
-91 13 -154 17 -79 5 -129 13 -159 26 -52 23 -46 22 -65 4z m234 -90 c69 -4
136 -13 150 -20 14 -7 44 -33 67 -57 76 -78 80 -165 11 -223 -34 -29 -65 -31
-134 -10 -69 21 -136 19 -165 -4 -24 -19 -24 -19 -62 15 -21 19 -52 37 -69 41
l-30 6 4 116 c3 64 10 128 16 143 11 27 12 27 49 14 21 -7 94 -17 163 -21z
m-140 -346 c19 -13 21 -18 11 -36 -16 -31 -14 -65 10 -128 11 -30 19 -60 17
-66 -2 -6 -21 3 -42 20 -20 16 -71 48 -112 71 -41 22 -74 42 -74 44 0 11 53
96 70 111 11 10 20 24 20 32 0 14 30 0 100 -48z m-442 27 c78 -41 129 -145
139 -282 l6 -82 -77 -7 c-96 -9 -106 -3 -106 75 0 113 -47 210 -127 260 l-45
29 33 10 c51 14 147 13 177 -3z m215 -25 c22 -9 27 -16 22 -29 -4 -9 -11 -45
-16 -80 -8 -56 -41 -167 -53 -180 -6 -6 -13 28 -20 100 -4 32 -17 82 -30 113
l-25 54 30 25 c22 18 35 23 47 17 9 -5 30 -14 45 -20z m-413 -17 c27 -18 39
-32 36 -43 -3 -9 -8 -29 -11 -46 -18 -83 -38 -116 -77 -132 -21 -8 -57 -36
-80 -62 l-41 -46 7 50 c4 28 10 99 14 159 9 117 12 124 77 137 17 4 31 7 33 8
1 0 20 -11 42 -25z m94 -91 c29 -45 45 -105 49 -188 l3 -60 98 -3 c88 -2 97
-5 91 -20 -4 -9 -9 -46 -12 -81 -6 -70 0 -81 50 -81 41 0 26 -15 -56 -56 -76
-38 -107 -66 -107 -99 0 -11 10 -47 21 -80 13 -40 18 -72 14 -96 -6 -37 12
-69 38 -69 7 0 24 -16 40 -35 16 -20 43 -39 65 -45 36 -11 37 -12 33 -56 l-3
-44 -72 0 -71 0 -12 40 c-19 58 -61 145 -84 169 -11 12 -33 24 -48 27 -27 6
-27 7 -27 78 1 63 -3 80 -34 141 -60 118 -104 155 -188 155 -21 0 -41 3 -45 6
-19 19 50 137 134 230 38 42 49 63 59 111 22 110 26 114 64 56z m521 -117 l30
-24 -30 -12 c-33 -13 -217 -42 -224 -35 -2 3 3 24 11 47 9 24 21 62 27 85 l12
42 72 -39 c39 -22 86 -50 102 -64z m1364 78 c78 -39 88 -68 68 -199 -9 -55
-13 -111 -11 -125 5 -21 -8 -38 -73 -102 l-78 -78 -23 30 c-32 41 -131 90
-182 90 l-40 0 0 63 c0 47 9 85 36 157 42 111 51 123 124 161 69 35 112 36
179 3z m-1273 -200 c7 -70 6 -71 -23 -92 -17 -12 -43 -26 -59 -33 -34 -13
-202 -39 -252 -39 l-34 0 7 53 c8 65 22 112 38 125 7 6 53 15 102 21 50 5 115
19 145 29 30 11 58 17 62 13 4 -3 10 -38 14 -77z m328 38 c-12 -103 -43 -123
-179 -120 -106 3 -106 3 -84 79 l12 38 71 -2 c58 -1 81 4 121 24 28 14 53 23
57 22 4 -2 5 -20 2 -41z m-1146 -29 c-32 -36 -67 -120 -77 -180 -11 -73 -39
-114 -118 -173 -29 -22 -54 -40 -56 -40 -2 0 -12 36 -21 80 l-18 80 29 48 c24
39 43 54 108 89 44 23 98 57 120 77 44 38 57 46 33 19z m1262 -73 c53 -15 108
-65 122 -111 10 -34 9 -42 -2 -49 -8 -5 -11 -12 -7 -16 4 -4 2 -13 -4 -20 -9
-11 0 -26 35 -65 33 -37 44 -55 36 -63 -7 -7 -15 -4 -25 11 -31 44 -117 143
-125 143 -4 0 -10 9 -13 20 -8 30 -39 24 -83 -15 -46 -42 -147 -92 -204 -101
l-40 -7 0 95 0 96 31 6 c17 3 59 20 93 37 97 50 125 56 186 39z m-372 -172
c24 -20 31 -35 34 -69 l3 -44 45 -3 c34 -2 49 -9 59 -24 12 -19 11 -20 -6 -13
-10 5 -51 10 -91 11 -99 4 -106 11 -99 98 4 47 2 79 -8 102 -7 18 -10 35 -7
39 4 3 14 -11 23 -32 9 -22 30 -51 47 -65z m-93 62 c23 -44 19 -75 -16 -109
-31 -32 -53 -39 -64 -21 -4 6 -43 35 -86 64 -83 56 -85 65 -16 67 18 0 52 6
77 13 73 21 88 19 105 -14z m-734 -33 c38 -26 46 -52 29 -102 -11 -33 -14 -35
-59 -35 -26 0 -85 -11 -132 -25 -120 -35 -131 -33 -72 14 55 44 98 101 108
144 6 24 12 27 50 27 27 0 54 -8 76 -23z m1814 -23 c30 -15 52 -30 50 -34 -3
-4 -22 -10 -43 -13 -56 -7 -107 -34 -155 -81 -39 -38 -55 -70 -73 -151 l-6
-30 -13 35 c-33 88 -11 165 70 246 63 64 88 68 170 28z m-1309 3 c2 -7 -9 -43
-26 -79 l-31 -66 -59 5 -59 6 -6 -37 c-10 -53 -20 -52 -34 4 -17 64 -8 76 98
132 95 50 109 54 117 35z m736 -54 c45 -45 46 -47 33 -73 -10 -19 -25 -30 -49
-34 -18 -4 -62 -18 -96 -32 -34 -14 -64 -23 -67 -21 -2 3 23 47 57 98 33 51
60 97 60 101 0 16 16 7 62 -39z m-1126 -78 c38 -87 31 -138 -33 -222 -20 -28
-132 -124 -171 -147 -8 -5 -23 15 -47 66 -19 40 -35 78 -35 84 0 6 27 30 61
54 63 44 145 144 154 186 3 13 7 36 11 50 l5 27 15 -21 c8 -12 26 -47 40 -77z
m1788 39 c9 -34 -28 -101 -72 -130 -25 -18 -47 -22 -105 -23 -100 -1 -109 7
-72 60 54 75 123 112 221 118 16 1 24 -6 28 -25z m-1167 -42 c-7 -66 -27 -120
-54 -144 -51 -46 -166 -72 -282 -63 l-83 7 6 59 c4 32 11 71 17 87 l9 28 113
0 c118 0 197 20 249 64 13 11 25 19 27 20 2 0 1 -26 -2 -58z m209 -75 l31 -16
-29 -83 c-29 -81 -31 -128 -5 -128 18 0 188 -112 215 -143 28 -30 25 -32 -79
-42 l-66 -7 -32 50 c-44 69 -52 75 -87 61 -44 -17 -197 -59 -216 -59 -15 0
-15 5 3 59 15 44 32 71 64 100 25 23 50 41 56 41 17 0 2 47 -32 96 -20 30 -28
51 -24 66 6 22 10 24 88 23 55 -1 92 -7 113 -18z m973 -28 c1 -9 -15 -43 -35
-77 l-36 -60 -62 17 c-74 21 -150 61 -154 81 -2 13 10 15 76 12 85 -4 136 12
177 58 18 20 20 20 26 3 4 -10 8 -25 8 -34z m-509 -15 c0 -40 -5 -50 -52 -98
-36 -36 -66 -58 -93 -65 -43 -12 -255 -15 -294 -4 -21 5 -22 10 -17 46 4 22
16 62 28 90 l21 49 51 -6 c149 -18 223 -19 273 -2 28 9 54 24 57 32 11 28 26
3 26 -42z m804 27 c56 -13 59 -20 46 -88 -17 -83 -22 -90 -57 -74 -48 22 -173
26 -231 7 -50 -17 -92 -15 -92 5 0 19 38 84 62 106 50 47 173 66 272 44z
m-679 -31 c6 0 19 -26 28 -57 9 -32 29 -76 45 -97 l29 -39 -29 -25 c-23 -20
-32 -22 -38 -12 -6 9 -21 11 -54 7 -39 -6 -48 -4 -53 11 -3 9 -17 43 -30 74
l-25 57 28 46 c26 40 32 45 58 40 16 -3 34 -5 41 -5z m-1337 -88 c18 -12 22
-23 22 -67 l0 -52 -97 -6 c-54 -4 -111 -9 -128 -13 l-30 -5 30 23 c60 46 107
92 120 119 16 29 38 30 83 1z m470 -37 c11 -35 11 -42 -6 -64 -10 -14 -30 -34
-45 -45 l-27 -20 -30 36 c-16 19 -53 51 -82 69 l-53 34 70 8 c39 4 81 11 95
17 45 16 64 8 78 -35z m-389 -86 c30 -73 29 -79 -15 -67 -30 8 -38 7 -49 -9
-18 -24 -35 -82 -42 -144 -5 -45 -4 -51 16 -56 30 -8 27 -14 -21 -51 -75 -58
-103 -56 -141 10 -43 74 -42 81 8 102 92 38 205 166 205 233 0 47 14 41 39
-18z m1707 29 c-3 -13 -9 -53 -12 -90 l-7 -68 -61 2 c-95 3 -287 -18 -328 -35
-46 -19 -49 -8 -18 52 39 77 66 99 153 125 112 34 112 34 201 35 77 1 78 1 72
-21z m-696 -70 c0 -33 -5 -41 -40 -65 l-41 -26 -47 45 c-26 25 -65 57 -87 72
l-40 26 60 1 c33 1 85 4 115 8 65 8 80 -3 80 -61z m-669 -93 c-36 -78 -44 -87
-83 -105 -43 -19 -169 -40 -236 -40 -20 0 -54 5 -76 11 l-38 11 7 46 c4 25 14
63 22 84 15 37 17 38 52 31 57 -11 242 -8 282 5 20 7 51 24 70 38 18 13 35 20
37 15 2 -6 -15 -49 -37 -96z m939 91 c0 -7 -11 -38 -24 -68 -14 -31 -28 -72
-31 -92 -5 -25 -16 -41 -39 -55 -17 -11 -38 -29 -46 -40 -8 -12 -18 -21 -21
-21 -4 0 -19 23 -33 52 -30 61 -24 78 40 114 21 12 47 36 56 54 25 48 98 90
98 56z m-669 -44 c-5 -9 -19 -26 -31 -37 -12 -11 -42 -48 -67 -83 -51 -70 -73
-80 -135 -61 -31 10 -44 20 -46 36 -5 31 35 103 56 103 23 0 202 46 210 54 12
13 22 5 13 -12z m1271 -8 c30 -15 30 -17 24 -69 -3 -30 -10 -65 -16 -79 -9
-25 -10 -25 -44 -11 -66 28 -207 10 -284 -35 -28 -17 -34 -18 -38 -5 -9 23 3
76 26 113 19 31 21 32 90 32 l70 0 0 28 c0 16 3 32 7 35 13 14 134 7 165 -9z
m-898 -91 c-28 -76 -62 -120 -109 -143 -56 -27 -156 -36 -241 -20 -98 17 -104
19 -104 40 0 18 43 147 52 156 3 2 31 -3 64 -12 41 -11 90 -15 159 -12 87 3
106 7 145 30 25 14 46 22 48 17 2 -5 -4 -30 -14 -56z m420 -37 c29 -24 74 -65
101 -90 l50 -47 -126 3 c-139 3 -155 9 -179 69 -17 41 -6 72 32 91 50 25 66
22 122 -26z m-889 -58 c-3 -24 -9 -51 -11 -60 -3 -11 10 -26 41 -48 l45 -31
-20 -29 c-11 -16 -26 -43 -32 -61 l-11 -32 -19 24 c-28 37 -58 108 -58 140 0
26 54 139 67 139 3 0 2 -19 -2 -42z m-186 11 c17 -13 45 -21 75 -22 42 -2 46
-4 41 -22 -20 -64 -16 -100 14 -160 16 -32 29 -60 28 -60 -55 -23 -81 -61
-123 -179 -22 -62 -18 -72 50 -127 63 -50 64 -52 49 -75 -8 -13 -18 -24 -22
-24 -3 0 -15 18 -25 41 -11 22 -32 48 -48 57 -26 15 -28 21 -28 76 0 63 -19
127 -56 187 -21 34 -21 38 -7 90 9 35 13 86 11 147 -2 50 0 92 4 92 5 0 21 -9
37 -21z m700 -166 c23 -40 40 -76 37 -81 -9 -15 -74 -24 -116 -17 l-38 6 2 48
c1 38 -5 55 -26 83 l-27 35 34 16 c19 9 42 28 51 43 l18 26 11 -44 c6 -23 30
-75 54 -115z m-301 62 l113 -2 24 -34 c33 -44 31 -63 -8 -93 -51 -39 -104 -36
-148 10 -18 19 -59 54 -89 77 -78 58 -80 61 -40 51 19 -4 86 -9 148 -9z m831
-21 c7 -7 -61 -143 -81 -160 -15 -14 -33 -15 -130 -8 -124 10 -173 8 -232 -7
-21 -6 -40 -8 -43 -6 -5 6 50 126 69 148 7 9 27 23 43 33 26 15 51 16 200 10
94 -3 172 -8 174 -10z m-1299 -75 c-28 -102 -78 -161 -153 -180 -49 -12 -226
-8 -259 6 -23 9 -23 55 1 120 14 38 22 49 37 48 10 -2 51 -8 89 -14 116 -19
232 5 275 56 19 23 23 12 10 -36z m1524 20 c31 -11 58 -25 62 -30 6 -11 -13
-103 -27 -131 -8 -16 -13 -15 -62 7 -85 40 -218 29 -294 -25 -24 -16 -43 -28
-43 -26 0 2 5 17 11 34 7 21 19 33 38 37 19 4 36 21 59 59 18 30 32 59 32 64
0 34 144 41 224 11z m-907 -91 c-2 -7 -12 -38 -20 -68 -27 -91 -48 -116 -107
-129 -55 -12 -245 -13 -322 -3 l-47 7 24 60 c45 111 36 106 225 109 125 2 173
6 200 18 44 20 53 21 47 6z m157 -80 c-5 -36 -1 -51 25 -90 31 -48 28 -58 -18
-58 -9 0 -34 -9 -54 -19 -29 -15 -64 -20 -147 -22 -100 -3 -111 -2 -128 17
-19 20 -19 21 38 32 66 14 93 38 115 103 15 44 16 44 55 41 35 -4 40 -2 40 17
0 18 6 21 40 21 l40 0 -6 -42z m202 1 c16 -17 55 -51 87 -76 31 -24 57 -48 57
-52 0 -4 -60 -6 -132 -5 l-133 3 -28 43 c-37 57 -33 89 13 105 64 22 103 16
136 -18z m-925 -66 c24 -72 24 -87 -6 -150 -29 -63 -96 -132 -155 -158 -35
-16 -43 -17 -50 -5 -6 10 -3 21 10 35 24 26 68 120 76 165 4 19 19 51 34 72
15 20 33 58 40 83 15 53 19 50 51 -42z m245 -90 l91 -6 31 -46 c45 -66 43 -85
-15 -105 -77 -26 -93 -22 -159 42 -32 32 -75 70 -94 84 -29 23 -33 29 -20 38
8 6 29 8 45 5 17 -3 71 -8 121 -12z m-392 -30 c-34 -140 -117 -207 -254 -208
-41 0 -96 6 -122 14 -55 16 -59 30 -33 119 17 57 24 60 81 36 77 -32 260 -2
303 49 20 25 32 20 25 -10z m1207 19 c16 -6 16 -11 -1 -65 -34 -108 -32 -107
-173 -107 -150 0 -243 -13 -270 -37 -20 -18 -20 -18 -13 10 12 52 47 136 64
158 27 33 103 48 247 48 72 0 137 -3 146 -7z m362 -24 c22 -11 21 -30 -7 -103
l-23 -60 -134 -3 c-129 -2 -135 -3 -201 -36 l-68 -34 6 27 c4 14 15 33 25 41
11 9 30 42 43 75 17 42 34 66 56 79 52 31 251 41 303 14z m-809 -76 c-13 -32
-24 -62 -24 -69 0 -6 -5 -15 -12 -19 -15 -10 -152 -31 -166 -26 -7 2 -6 18 4
52 10 35 11 55 4 75 -5 14 -10 30 -10 35 0 9 153 18 201 12 l26 -4 -23 -56z
m-466 -84 c68 -10 148 -7 216 8 l30 7 -33 -59 c-70 -125 -96 -139 -246 -130
-130 8 -222 20 -232 29 -8 8 8 45 50 115 l32 54 55 -7 c30 -3 88 -11 128 -17z
m828 -21 c3 -3 -1 -38 -8 -77 l-13 -73 -84 65 c-47 35 -86 69 -88 75 -6 18
176 27 193 10z m-1098 -63 c-26 -56 -29 -70 -19 -86 14 -22 14 -21 -17 -37
-25 -13 -23 -37 9 -105 11 -22 17 -41 15 -43 -2 -2 -23 1 -47 6 -64 15 -67 14
-88 -20 -10 -17 -21 -25 -23 -19 -2 7 10 26 28 44 34 34 51 91 61 208 6 66 7
68 47 92 63 39 68 33 34 -40z m947 -16 c125 -97 125 -98 -54 -90 -113 5 -115
6 -140 35 -39 46 -45 68 -23 89 16 16 82 46 104 48 4 0 55 -37 113 -82z m-256
22 c-1 -43 -6 -54 -33 -76 -17 -15 -45 -33 -63 -42 -38 -18 -38 -19 -17 -71
16 -40 16 -40 -26 -125 -29 -58 -41 -92 -37 -108 4 -13 29 -61 57 -108 27 -47
50 -94 50 -104 0 -27 -29 -56 -55 -56 -21 0 -23 5 -27 91 l-4 92 -47 44 c-42
39 -47 49 -47 87 0 24 -6 62 -14 84 -11 29 -12 51 -6 73 6 22 5 43 -5 72 -14
42 -14 42 19 77 18 19 43 50 55 68 18 26 29 32 59 33 20 0 55 4 77 8 66 14 65
15 64 -39z m655 -89 l79 -38 -80 -7 c-44 -4 -106 -13 -137 -20 l-56 -13 -20
27 c-11 16 -23 41 -26 57 -5 25 0 35 36 66 l41 38 42 -36 c23 -20 77 -54 121
-74z m224 91 c-1 -4 -29 -31 -60 -61 l-57 -53 -71 27 c-42 16 -70 33 -70 41 0
20 42 34 108 35 31 1 68 5 82 9 33 11 73 12 68 2z m89 -106 l25 -49 -75 -76
c-94 -96 -157 -177 -157 -202 0 -28 -17 -15 -40 31 -25 49 -25 50 3 50 16 0
28 9 35 25 16 35 35 151 29 181 -3 20 7 35 56 80 l61 56 19 -23 c10 -13 30
-46 44 -73z m-1772 -48 c-20 -82 -39 -107 -110 -143 -75 -39 -185 -47 -247
-19 l-40 18 6 51 c3 28 11 65 17 83 11 31 11 31 37 14 62 -41 264 -10 320 50
34 35 37 25 17 -54z m304 35 l103 -6 19 -41 c26 -57 24 -71 -15 -95 -49 -31
-80 -27 -111 13 -14 19 -57 58 -96 87 -38 29 -69 55 -69 57 0 3 15 2 32 -2 18
-4 80 -9 137 -13z m881 -31 c0 -7 -16 -48 -36 -91 l-36 -79 -191 -5 c-106 -3
-205 -8 -221 -12 l-29 -8 23 39 c78 131 100 150 180 163 87 13 310 9 310 -7z
m-980 -39 c33 -25 60 -49 60 -52 0 -13 -69 -52 -96 -54 -24 -2 -32 5 -56 48
-15 28 -28 60 -28 72 0 20 5 23 52 32 5 0 35 -20 68 -46z m1370 6 c0 -37 -19
-120 -32 -135 -5 -7 -50 -15 -101 -19 -121 -9 -234 -31 -264 -51 -14 -8 -27
-13 -30 -10 -11 11 30 138 53 165 16 20 45 34 96 49 93 27 107 29 201 31 l77
1 0 -31z m-1036 -172 c5 -27 2 -49 -12 -80 -19 -41 -87 -116 -97 -106 -2 3
-12 35 -22 70 l-17 65 34 53 c19 29 46 59 60 66 23 12 26 11 36 -8 6 -12 14
-39 18 -60z m-451 47 c73 -19 267 -16 305 5 13 7 26 10 29 7 7 -6 -60 -117
-85 -139 -28 -26 -99 -47 -159 -47 -101 0 -243 22 -243 37 0 8 14 48 31 89 22
54 35 74 46 70 7 -3 42 -13 76 -22z m1038 -71 c-6 -21 -11 -59 -11 -84 0 -42
-4 -51 -40 -83 -55 -50 -106 -73 -128 -60 -17 11 -58 86 -64 117 -2 14 7 22
36 32 21 8 62 36 90 64 38 37 60 51 86 53 19 2 36 2 38 2 2 -1 -1 -19 -7 -41z
m720 30 c-5 -10 -42 -49 -80 -87 -39 -38 -71 -73 -71 -78 0 -11 -27 -10 -72 3
-36 9 -38 12 -38 49 0 29 7 48 28 70 24 26 38 32 117 44 129 19 127 19 116 -1z
m84 -65 c19 -40 35 -77 35 -83 0 -6 -30 -40 -66 -75 -76 -74 -144 -172 -144
-207 0 -12 -3 -23 -7 -23 -12 1 -56 69 -78 119 l-19 44 34 64 c31 56 181 228
203 232 4 0 23 -31 42 -71z m-1087 -76 c23 -30 42 -60 42 -68 0 -16 -65 -90
-91 -104 -14 -8 -20 -3 -32 35 -9 25 -36 81 -61 126 -25 45 -46 87 -46 95 0
16 33 35 75 44 27 6 32 3 50 -34 11 -23 39 -65 63 -94z m668 71 c54 -98 69
-113 121 -113 47 0 49 -3 28 -40 -34 -59 -6 -159 70 -247 60 -71 111 -82 263
-57 23 4 42 3 42 -2 -1 -20 -69 -101 -106 -125 -43 -29 -17 -29 -295 -3 -107
10 -159 -32 -159 -130 0 -42 -2 -45 -31 -51 -62 -14 -64 41 -4 101 34 34 61
103 51 130 -10 25 -35 15 -62 -26 -15 -22 -32 -40 -39 -40 -22 0 -112 106
-141 166 -23 48 -25 58 -14 79 12 23 16 24 100 19 105 -6 110 -2 140 93 32
104 29 116 -34 147 -57 28 -190 125 -182 134 5 5 157 29 193 31 16 1 30 -14
59 -66z m-222 -22 c32 -27 74 -57 92 -67 19 -10 34 -21 34 -24 0 -3 -57 -4
-127 -4 l-128 1 -18 31 -18 31 39 40 c22 23 46 41 53 41 8 0 40 -22 73 -49z
m-1400 -110 c-37 -69 -78 -98 -150 -107 -67 -8 -197 3 -218 19 -13 11 -13 19
-2 68 7 30 18 65 24 76 11 19 14 20 64 7 84 -22 195 -18 248 9 44 21 45 22 55
3 7 -14 2 -32 -21 -75z m143 27 c86 -33 93 -42 42 -57 -56 -17 -114 -56 -128
-87 -15 -35 -14 -99 4 -133 18 -36 105 -81 155 -81 25 0 50 9 76 29 61 45 124
115 132 146 6 22 16 31 43 38 19 4 48 23 65 42 24 26 42 34 83 40 63 8 77 -1
60 -39 -9 -20 -10 -38 -1 -74 5 -26 9 -48 8 -50 -2 -1 -17 3 -35 9 -60 21
-104 -8 -156 -104 -21 -38 -28 -64 -29 -116 l-1 -68 -33 25 c-26 20 -47 26
-97 28 -40 2 -99 16 -165 39 -56 19 -113 35 -127 35 -18 0 -49 -23 -107 -79
l-81 -79 -23 29 -23 28 30 16 c68 35 123 152 126 270 1 62 5 76 34 115 17 24
34 55 38 69 11 49 4 49 110 9z m280 6 c18 -25 16 -48 -7 -69 -11 -10 -20 -25
-20 -33 0 -9 -3 -12 -7 -9 -3 4 -12 2 -19 -4 -9 -8 -23 0 -52 29 -22 22 -71
55 -109 74 l-69 33 135 -1 c118 -1 136 -4 148 -20z m1161 -48 c6 -7 -14 -88
-34 -134 l-14 -35 -92 7 c-50 3 -93 8 -95 10 -2 2 1 22 6 45 7 33 6 45 -6 57
-22 21 -42 1 -50 -49 -5 -35 -7 -38 -14 -19 -5 12 -14 22 -21 22 -9 0 -9 3 0
12 7 7 12 29 12 49 0 27 5 39 18 43 20 6 282 -1 290 -8z m-335 -28 c4 -26 1
-36 -16 -48 -36 -25 -50 -47 -72 -107 -20 -56 -22 -58 -53 -55 -27 3 -34 -1
-42 -22 -5 -14 -13 -26 -17 -26 -4 0 -30 15 -56 33 -34 22 -55 45 -68 75 -25
56 -24 62 6 62 18 0 29 8 37 28 7 15 18 35 26 44 13 16 16 16 42 -4 24 -17 33
-19 62 -9 19 6 49 22 68 36 51 35 76 33 83 -7z m-925 -48 c13 -16 32 -30 43
-30 18 0 19 -2 5 -29 -18 -35 -124 -131 -144 -131 -37 0 -96 26 -118 53 -48
57 -2 125 106 158 54 16 85 10 108 -21z m1833 -59 c-27 -38 -26 -49 4 -81 25
-26 25 -28 8 -48 -14 -17 -37 -24 -108 -33 -85 -11 -92 -11 -133 10 -35 18
-42 26 -42 52 0 16 7 43 15 59 12 24 22 30 48 30 17 1 66 9 107 20 41 10 85
19 98 19 l23 1 -20 -29z m-1276 -32 c5 -23 9 -28 16 -18 5 9 9 10 9 2 0 -6 3
-20 6 -30 5 -15 4 -16 -5 -3 -9 12 -10 6 -5 -25 8 -50 14 -57 15 -19 0 29 0
29 10 5 10 -25 -1 -40 -27 -41 -6 0 -16 -6 -22 -13 -15 -17 -54 -119 -44 -113
5 3 17 27 27 53 10 26 20 43 22 37 5 -14 -34 -104 -44 -104 -22 1 -32 22 -46
95 -30 156 -32 139 21 174 26 17 50 31 54 31 3 0 10 -14 13 -31z m-977 -136
c-36 -74 -66 -100 -154 -133 -61 -22 -134 -25 -204 -7 -49 13 -62 37 -37 65 8
9 20 36 27 60 11 42 12 43 43 35 90 -23 271 3 327 46 37 29 36 10 -2 -66z
m773 57 c10 -14 21 -37 25 -52 5 -23 3 -28 -13 -28 -43 0 -54 -31 -52 -137 1
-55 -1 -105 -5 -111 -11 -19 -50 -14 -87 11 l-34 23 -3 92 c-2 78 1 98 19 134
43 84 58 99 97 96 24 -2 41 -11 53 -28z m435 -19 c5 -5 26 -14 47 -21 20 -6
37 -12 37 -14 0 -18 -67 -151 -91 -180 -32 -39 -33 -39 -42 -15 -14 38 13 239
32 239 4 0 11 -4 17 -9z m64 -153 c-14 -38 -41 -76 -88 -126 -60 -64 -73 -72
-127 -86 -33 -8 -49 -15 -35 -15 14 -1 47 6 74 14 27 8 51 13 53 11 7 -7 -19
-61 -40 -84 -24 -26 -69 -52 -89 -52 -11 0 -11 2 0 9 9 5 11 17 6 35 -8 31
-17 38 -39 30 -12 -5 -16 -17 -13 -48 3 -38 1 -41 -23 -44 -15 -2 -53 6 -85
17 -37 12 -63 16 -70 10 -13 -11 -30 7 -69 76 -16 28 -33 53 -38 56 -17 12 7
17 86 17 42 1 77 -3 77 -8 0 -16 106 -42 127 -32 10 6 43 17 74 26 46 13 66
27 121 83 43 46 72 87 88 126 30 73 38 60 10 -15z m-1097 27 c48 -61 46 -82
-15 -143 l-54 -52 -56 38 c-30 22 -61 41 -67 43 -15 5 131 149 150 149 8 0 26
-16 42 -35z m671 -12 c25 -16 46 -34 46 -42 0 -17 79 -10 171 16 32 9 62 14
65 10 4 -3 7 -29 7 -57 1 -75 -22 -100 -114 -124 -86 -22 -129 -17 -129 15 0
19 -4 20 -32 15 -77 -15 -72 -20 -81 77 -9 89 -6 117 12 117 5 0 30 -12 55
-27z m-935 -80 c16 -20 38 -37 48 -38 10 -1 40 -17 66 -35 46 -33 47 -35 24
-41 -13 -4 -51 -22 -84 -40 -60 -33 -61 -33 -82 -15 -18 17 -77 173 -68 182 4
4 50 23 59 23 3 1 20 -15 37 -36z m486 -35 c8 -28 14 -52 12 -53 -1 -2 -18
-10 -37 -20 -19 -10 -54 -31 -76 -46 l-42 -28 -6 37 c-14 84 -2 108 69 145 51
27 63 22 80 -35z m149 -118 c25 -10 46 -24 46 -30 0 -18 -88 -97 -119 -108
-28 -10 -30 -9 -35 16 -3 15 -5 53 -5 85 l-1 57 34 0 c19 0 55 -9 80 -20z"/>
</g>
</svg>
